/* XPM */
static char *_26b998865c441e9cccb4d5242e355fd[] = {
/* columns rows colors chars-per-pixel */
"64 64 32 1 ",
"  c #140E04",
". c #8C0204",
"X c #B44604",
"o c #942E04",
"O c #5C0204",
"+ c #DC660C",
"@ c #B40204",
"# c #842204",
"$ c #740204",
"% c #CC5604",
"& c #FC7E1C",
"* c #CC0204",
"= c #440204",
"- c #9C0204",
"; c #A43E04",
": c #640204",
"> c #EC6E0C",
", c #C44E04",
"< c #9C3604",
"1 c #5C0604",
"2 c #BC0204",
"3 c #7C0204",
"4 c #D45E0C",
"5 c #D40204",
"6 c #4C0204",
"7 c #A40204",
"8 c #F47214",
"9 c black",
"0 c black",
"q c black",
"w c black",
"e c black",
/* pixels */
">%2%,*2,>>>4,-36=@44*22-3.$O666O3.6->&>>444%+>>445@77,4>&&&&&>>,",
"4%,4**,%>&>+7.3..7@,2**73-...16-52@2>&&>>+4*+>4,,,@@2@X+44+&>4,,",
",*,,*544>>+,-$3$37.@22@-$$1.$$7@22,,4&&&8>>,,%,,,,*2>X$@7**,,*24",
",,,*2,++4>4*..-7.22,,@7@$6:.---@@@,,4&&&&%,%4,@7XX,4>+;X2-.-.-X,",
"2+**,,44>>+2-@773-@72@@..---**@@2*%>&>>>+*2,X%,@-@2*27.311=6$3@@",
"@,27*%4>&84*227-..%73@273-22%%X2@,+>>+%%,22,---2@2+2*@.$:1==1-5*",
"*@@-@,4>>>,*2-...32*$.7%72%,%4+%+4,,44,4X**X@33-%>4X%*.3:6==$*+,",
"@-@77*,+%,%%2.-7*%>%7.2%844>>>>%,4,*X,@7-@22@..@,844%7.$== =6.44",
"7-7.75%%,,4,7-@*7@4X@@+%,%>&&X*224,..27.72@@@.@*>&+5@.$6= 11$X%2",
"$.-..**,44,*X-7-@$784,4,5,>>+%%,,%,@7@X.@5,.**,@%>,...-1$1$=3%23",
"$-@@7@5,>>X@@3.-.@2>>+,4,+4>+444,%%+*7*%%4X-.-@22,*-@$.@*7113*@$",
"32*@-.2,>+,@7-.7.@2,@,,+>>444>>>+,*@*2-2+&%.$.@*X>,3.$==$....3*.",
"-**23.@%>4,7.1o7$@*,.X,44%44>>8>4*@@@%@$@,,-3-2@%&+3173=6.@27377",
"**2*@-2*++*@7XX;.7.@;X+>4,5,4,+>>X-22@..724X.-*%@;4+,+5@..@-3@2%",
",**2@2*%>+,57@@3.7@2@%>>>%,+@*%>+X-@-$11.7X@$-..11-X,.333@@3.@*,",
"4,@--77,,>42.3*723%,,%>&4+>>,444>,2*2.$$1.3$...1==.77$==61-.25%,",
",22.3.7*+>+@3$37@727,>>>4,*%4+,4>,2%,.$.77..@116==1-,2.-@..@++,4",
"2@@..@2*4>%@@2-@2;,.,>>4+2,4,,4484,%,**22@@%7-@.31$7X*117.-%>>*2",
"-@2-7.-2+>,,7@*2@72*,>&>>>%+X*,>>>>>+++%33%,...3$11.@..1****%@2-",
"7@*7@.@*+4,2.-7%**%+4+>&&&,4,,,>>>>>>4+*3;+.=16==61.7.3$@%7.-@@7",
"@@527@*5>+@@44X25%4>>>8>&+,@2,,++4+%44427%4@=== =11:-.31.@@-$.-7",
"7-2%2-72+4%,@.@7@,4>&>4>,@@7*5%4>+4*%,+,2.@*31$61$3$--.3-2@77,@7",
"$3@,27@*+4,@.@272%4>>844@.*X%,+>>4%,%4,4+2@oX23...*2*-7.3@@7%@-3",
"::372*@*%>4X7772@,4>><+>44+>>++,*@@@*4%,>4711$@22%,%,*.$6-2.-@-3",
".1:3@@@%%4+4@-$.*%,48%4+,,44>4>4,%@@.@4,>+*.==1.,4>44+@.3.7.$.3$",
":1$-52244%>4,273@,4,,>8>>>4+>88>*%+2-7,,>>,.6=1$.<>++4X2@$$-3$.$",
"6:2++55+,,>>%2@-@+>+2+4&&&>4&&+4,@*****@+4,2$6331.%,-@7$33163111",
"-@*4>4%@5,4>8+,+*,4++4+>>>44&>>4+@@@X-72%,2%,2@$1$-*7--.--#1$$1.",
"77@,>>%*@,+>>>>444+,+4>>4>>>&&&>>%@2@$3-74274,..$$$%,@@.31= =1$3",
":-@*+>+,@@,4>4455%>&>>>>8>>8>>>>&+2@,*--@4,@@73$11$<,7.$116  $$$",
"1-@@,>>+,@,,>+84,4+48>4>&&&&&8>8>,@2*,-$X+,4227.13.@+@.36$6  1.1",
":@@7%>8>>+,@+>&>%,,@+>,%&&&&&&&>>4@2,-.-%>,>,7$$1@,+,@..11=  $1=",
".**2++>>4,,,>>>>4,-@.4>>&&&&&8>,>%@4*7..%4@.@3$==@+%@2@-.3$111:.",
"*4454>>>>4,*+&>44,2*@2,>4%%88>4%>>%,@3$1;%.3$$1$.-7,2X273-.-...-",
"54>%,>&&&>+4>>>84%*-*;1@7@*44,*%+44*2.33-42.1$$1$-$@2*7-$$133@27",
",+>4%+8&&>4+4>>>>,%,,X722*2%4@*,7@,,@..3-,2-$$3.3*.,,@7@$613-..7",
"*%>>>>>&&&>4%%>>>>>>>,2@@@*,@.%*2*2%,7.3@,77$3--.-..*@@.3311@@-7",
"244,+>>&&&>>,484>>>+>4,**.7@@@+,**2@*@777@7@$..$31=13@@@$131-%*@",
"+4%,,4>&&>4,,,>>+4%44,**2--2*4>,*@7.2*4@-,@7$#3$$1$.$37%.$.37,+%",
"%4,%4>>&&&4,>4>+4+,,%2%X*2**@,>4@-7.*+4@@X@..$3-7@,--.24%31-%>>,",
"X+44>>>&&>4+>>>>>>+44,4,%,+,+>427..32+,%%..$..7*7@+X7@+,@317,@@2",
",%4>>8&8>>>>>&&&>>>>>>>4,4>,4>*.1$$.2+@@..-72-7-@$78+,4X7$1-@*%,",
",%4>>>&&&&>>>>+>&&8&&>>>4%>X@%7$1$1.+42-$.-7@3.--@2>>4,,7$1*2,44",
"4,,>8>&&&&844,,4&&&8>>&&>++,-3*-..1-+,7--22@--.-3@2,@5++2.$.5+&>",
"+%,>&&&88+42224+>8>,,2+&>***7$773@@X,5-.7%*7.1.-$2*,7X,*2-.2+&&&",
"4,4>&8+***4X.7,4,,4,@.,>4,*..72%2@*@@...@22@@,,..2.@@*,-.@@*+>>>",
"4%>8>4.$.@,23-773$@@77%4,2*3.2*%52@.-.137+5*-@-33.-..2%$1,@*%>+>",
">4>>>X31:77--..111-.@%>,*33@*%,*+,,7$$$..%5@.3*72$,,,@,@$<4*5+44",
">+4>>2.-@@@@@$$$3$..784>,$32>+%4,@@7.-.$$1..313@77@-X+4,22.75,5+",
">444+,%,%**%*2@7*2@*,,2%+@@%&>,@2..-3.3$.6=617-@2@*-*+>,@7@.4,,4",
">>>>44>>44+44>+4,8++4,@%&+,,>%@-.3$1=11$$11111@@#$7*,>>4@3-X+5,4",
">>8>>444,>>4,,-22,,,4>+4++*@,,@7-11===1$$$13@31...$@%4>>,.$<+%54",
"4444++4*2,+*$111$3..2,*,+,*27.-@7.-1==611113;.311<.75>>>%-..@%,4",
">>>>>4+,2725.$3113..7@@,%,*22,@7@.-$166======16$3.7@+4,,@2-3*544",
">48&>8>>+*@<X2---@*2*@22*+@@%*..$$1$161361 =6=61.77@+4,@33-$@54>",
",4>&>>>>>>*---***,%,%*772,%.-@-3116=== 6==6$11:$...@,@,%@-..7%4%",
"4>>&>>>>>>>>*-37X+>44,@7*2*-3-3$3166=6=====$$$.:633.*5%%5*@7@,++",
"+>>>>>4>>4>>%,-.-2++4%@7.777.3.31=6=$--2@-311$1==6$-@584++,%%*+4",
"4&>>>>>+4+4+%,2-$75**2.....$.$111=1.@@*45@2-$11=11$.32,>>>>4>>44",
">&>>>4>>>>>>4,23$$722@.31$31.$1...$3%+,@*27@7..$-@..$.%+>4448>44",
">>44+,,44&&>4+,.$$3,2.-$16116$1$....>>%@7-.,%,@@@**7-.,++>>>&8>>",
"&+**,,2*%8&&+,@31$$-*@.$1161=611=1.*>&+,7.2%>,*22%4>%,4>>>>8+,>>",
">,@2*,@@4&&&>42.1$.@*--.$$6==666=$@*>&>+,@*,4+4+,4+4>%,4&>>>>4>>",
">4@24@-*+>&845-$$7%,*-.-11=  16=$$32>&&>>+,@+>8>,,X2%%@*>&&&&8>>"
};
